<svg width="52" height="52" viewBox="0 0 52 52" fill="none" xmlns="http://www.w3.org/2000/svg">
<path d="M41.7747 30.3997L27.1497 45.0247C26.9988 45.1758 26.8195 45.2956 26.6223 45.3774C26.425 45.4592 26.2135 45.5013 26 45.5013C25.7864 45.5013 25.575 45.4592 25.3777 45.3774C25.1804 45.2956 25.0012 45.1758 24.8503 45.0247L10.2253 30.3997C9.92038 30.0948 9.74908 29.6812 9.74908 29.25C9.74908 28.8188 9.92038 28.4052 10.2253 28.1003C10.5302 27.7954 10.9438 27.6241 11.375 27.6241C11.8062 27.6241 12.2198 27.7954 12.5247 28.1003L24.375 39.9527V8.125C24.375 7.69402 24.5462 7.2807 24.8509 6.97595C25.1557 6.67121 25.569 6.5 26 6.5C26.431 6.5 26.8443 6.67121 27.149 6.97595C27.4538 7.2807 27.625 7.69402 27.625 8.125V39.9527L39.4753 28.1003C39.7802 27.7954 40.1938 27.6241 40.625 27.6241C41.0562 27.6241 41.4698 27.7954 41.7747 28.1003C42.0796 28.4052 42.2509 28.8188 42.2509 29.25C42.2509 29.6812 42.0796 30.0948 41.7747 30.3997Z" fill="#A8CDEF"/>
</svg>
