<svg width="52" height="52" viewBox="0 0 52 52" fill="none" xmlns="http://www.w3.org/2000/svg">
<path d="M46.6497 15.7747L20.6497 41.7747C20.4988 41.9258 20.3195 42.0456 20.1223 42.1274C19.925 42.2092 19.7135 42.2513 19.5 42.2513C19.2864 42.2513 19.075 42.2092 18.8777 42.1274C18.6804 42.0456 18.5012 41.9258 18.3503 41.7747L6.9753 30.3997C6.67038 30.0948 6.49908 29.6812 6.49908 29.25C6.49908 28.8188 6.67038 28.4052 6.9753 28.1003C7.28022 27.7954 7.69377 27.6241 8.12499 27.6241C8.5562 27.6241 8.96976 27.7954 9.27468 28.1003L19.5 38.3276L44.3503 13.4753C44.6552 13.1704 45.0688 12.9991 45.5 12.9991C45.9312 12.9991 46.3448 13.1704 46.6497 13.4753C46.9546 13.7802 47.1259 14.1938 47.1259 14.625C47.1259 15.0562 46.9546 15.4698 46.6497 15.7747Z" fill="#6DDBB8"/>
</svg>
