<svg width="52" height="52" viewBox="0 0 52 52" fill="none" xmlns="http://www.w3.org/2000/svg">
<path d="M29.25 40.625C29.25 41.2678 29.0594 41.8961 28.7023 42.4306C28.3452 42.9651 27.8376 43.3816 27.2437 43.6276C26.6499 43.8736 25.9964 43.938 25.366 43.8126C24.7355 43.6872 24.1564 43.3776 23.7019 42.9231C23.2474 42.4686 22.9379 41.8895 22.8124 41.259C22.687 40.6286 22.7514 39.9751 22.9974 39.3813C23.2434 38.7874 23.6599 38.2798 24.1944 37.9227C24.7289 37.5656 25.3572 37.375 26 37.375C26.862 37.375 27.6886 37.7174 28.2981 38.3269C28.9076 38.9364 29.25 39.763 29.25 40.625ZM26 32.5C26.431 32.5 26.8443 32.3288 27.1491 32.024C27.4538 31.7193 27.625 31.306 27.625 30.875V9.75C27.625 9.31902 27.4538 8.9057 27.1491 8.60095C26.8443 8.29621 26.431 8.125 26 8.125C25.569 8.125 25.1557 8.29621 24.851 8.60095C24.5462 8.9057 24.375 9.31902 24.375 9.75V30.875C24.375 31.306 24.5462 31.7193 24.851 32.024C25.1557 32.3288 25.569 32.5 26 32.5Z" fill="#FAC775"/>
</svg>
