<svg width="239" height="122" viewBox="0 0 239 122" fill="none" xmlns="http://www.w3.org/2000/svg">
<g clip-path="url(#clip0_18_4)">
<path d="M7.666 94V77.872L40.882 39.664V38.128H8.626V26.8H54.13V42.928L20.914 81.136V82.672H54.322V94H7.666ZM86.2285 95.344C81.4925 95.344 77.3005 94.352 73.6525 92.368C70.0685 90.32 67.2525 87.472 65.2045 83.824C63.2205 80.112 62.2285 75.76 62.2285 70.768V69.616C62.2285 64.624 63.2205 60.304 65.2045 56.656C67.1885 52.944 69.9725 50.096 73.5565 48.112C77.1405 46.064 81.3005 45.04 86.0365 45.04C90.7085 45.04 94.7725 46.096 98.2285 48.208C101.685 50.256 104.373 53.136 106.292 56.848C108.213 60.496 109.173 64.752 109.173 69.616V73.744H74.5165C74.6445 77.008 75.8605 79.664 78.1645 81.712C80.4685 83.76 83.2845 84.784 86.6125 84.784C90.0045 84.784 92.5005 84.048 94.1005 82.576C95.7005 81.104 96.9165 79.472 97.7485 77.68L107.637 82.864C106.741 84.528 105.429 86.352 103.701 88.336C102.037 90.256 99.7965 91.92 96.9805 93.328C94.1645 94.672 90.5805 95.344 86.2285 95.344ZM74.6125 64.72H96.8845C96.6285 61.968 95.5085 59.76 93.5245 58.096C91.6045 56.432 89.0765 55.6 85.9405 55.6C82.6765 55.6 80.0845 56.432 78.1645 58.096C76.2445 59.76 75.0605 61.968 74.6125 64.72ZM119.939 94V46.384H131.843V52.624H133.571C134.339 50.96 135.779 49.392 137.891 47.92C140.003 46.384 143.203 45.616 147.491 45.616C151.203 45.616 154.435 46.48 157.187 48.208C160.003 49.872 162.179 52.208 163.715 55.216C165.251 58.16 166.019 61.616 166.019 65.584V94H153.923V66.544C153.923 62.96 153.027 60.272 151.235 58.48C149.507 56.688 147.011 55.792 143.747 55.792C140.035 55.792 137.155 57.04 135.107 59.536C133.059 61.968 132.035 65.392 132.035 69.808V94H119.939ZM177.275 94V45H186.095V94H177.275ZM215.929 94C212.793 94 210.233 93.04 208.249 91.12C206.329 89.136 205.369 86.512 205.369 83.248V56.368H193.465V46.384H205.369V31.6H217.465V46.384H230.521V56.368H217.465V81.136C217.465 83.056 218.361 84.016 220.153 84.016H229.369V94H215.929Z" fill="white"/>
<mask id="mask0_18_4" style="mask-type:luminance" maskUnits="userSpaceOnUse" x="170" y="18" width="24" height="24">
<path d="M170 18H194V42H170V18Z" fill="white"/>
</mask>
<g mask="url(#mask0_18_4)">
<path d="M182 36.3682L189.419 42.0039L186.579 32.9034L193.998 27.393H184.899L182 18L179.1 27.393H170.002L177.421 32.9034L174.591 42.0039L182 36.3682Z" fill="white"/>
</g>
</g>
<defs>
<clipPath id="clip0_18_4">
<rect width="239" height="122" fill="white"/>
</clipPath>
</defs>
</svg>
