<svg width="239" height="122" viewBox="0 0 239 122" fill="none" xmlns="http://www.w3.org/2000/svg">
<g clip-path="url(#clip0_3_30)">
<rect width="239" height="122" fill="#0B1A2E"/>
<path d="M4.71288 94V77.872L37.9289 39.664V38.128H5.67288V26.8H51.1769V42.928L17.9609 81.136V82.672H51.3689V94H4.71288ZM83.2754 95.344C78.5394 95.344 74.3474 94.352 70.6994 92.368C67.1154 90.32 64.2994 87.472 62.2514 83.824C60.2674 80.112 59.2754 75.76 59.2754 70.768V69.616C59.2754 64.624 60.2674 60.304 62.2514 56.656C64.2354 52.944 67.0194 50.096 70.6034 48.112C74.1874 46.064 78.3474 45.04 83.0834 45.04C87.7554 45.04 91.8194 46.096 95.2754 48.208C98.7314 50.256 101.419 53.136 103.339 56.848C105.259 60.496 106.219 64.752 106.219 69.616V73.744H71.5634C71.6914 77.008 72.9074 79.664 75.2114 81.712C77.5154 83.76 80.3314 84.784 83.6594 84.784C87.0514 84.784 89.5474 84.048 91.1474 82.576C92.7474 81.104 93.9634 79.472 94.7954 77.68L104.683 82.864C103.787 84.528 102.475 86.352 100.747 88.336C99.0834 90.256 96.8434 91.92 94.0274 93.328C91.2114 94.672 87.6274 95.344 83.2754 95.344ZM71.6594 64.72H93.9314C93.6754 61.968 92.5554 59.76 90.5714 58.096C88.6514 56.432 86.1234 55.6 82.9874 55.6C79.7234 55.6 77.1314 56.432 75.2114 58.096C73.2914 59.76 72.1074 61.968 71.6594 64.72ZM116.986 94V46.384H128.89V52.624H130.618C131.386 50.96 132.826 49.392 134.938 47.92C137.05 46.384 140.25 45.616 144.538 45.616C148.25 45.616 151.482 46.48 154.234 48.208C157.05 49.872 159.226 52.208 160.762 55.216C162.298 58.16 163.066 61.616 163.066 65.584V94H150.97V66.544C150.97 62.96 150.074 60.272 148.282 58.48C146.554 56.688 144.058 55.792 140.794 55.792C137.082 55.792 134.202 57.04 132.154 59.536C130.106 61.968 129.082 65.392 129.082 69.808V94H116.986ZM176.142 94V46.384H188.238V94H176.142ZM182.19 40.816C180.014 40.816 178.158 40.112 176.622 38.704C175.15 37.296 174.414 35.44 174.414 33.136C174.414 30.832 175.15 28.976 176.622 27.568C178.158 26.16 180.014 25.456 182.19 25.456C184.43 25.456 186.286 26.16 187.758 27.568C189.23 28.976 189.966 30.832 189.966 33.136C189.966 35.44 189.23 37.296 187.758 38.704C186.286 40.112 184.43 40.816 182.19 40.816ZM219.882 94C216.746 94 214.186 93.04 212.202 91.12C210.282 89.136 209.322 86.512 209.322 83.248V56.368H197.418V46.384H209.322V31.6H221.418V46.384H234.474V56.368H221.418V81.136C221.418 83.056 222.314 84.016 224.106 84.016H233.322V94H219.882Z" fill="white"/>
<g clip-path="url(#clip1_3_30)">
<rect width="24" height="24" transform="translate(170 18)" fill="#0B1A2E"/>
<mask id="mask0_3_30" style="mask-type:luminance" maskUnits="userSpaceOnUse" x="170" y="18" width="24" height="24">
<path d="M170 18.5017H194V41.4937H170V18.5017Z" fill="white"/>
</mask>
<g mask="url(#mask0_3_30)">
<path d="M182 36.0985L189.419 41.4975L186.579 32.7792L193.998 27.5002H184.9L182 18.5017L179.101 27.5002H170.002L177.421 32.7792L174.591 41.4975L182 36.0985Z" fill="white"/>
</g>
</g>
</g>
<defs>
<clipPath id="clip0_3_30">
<rect width="239" height="122" fill="white"/>
</clipPath>
<clipPath id="clip1_3_30">
<rect width="24" height="24" fill="white" transform="translate(170 18)"/>
</clipPath>
</defs>
</svg>
